<?xml version="1.0" encoding="UTF-8" standalone="no"?>
<svg width="923px" height="1384px" viewBox="0 0 923 1384" version="1.1" xmlns="http://www.w3.org/2000/svg" xmlns:xlink="http://www.w3.org/1999/xlink">
    <!-- Generator: Sketch 3.8.2 (29753) - http://www.bohemiancoding.com/sketch -->
    <title>Group 2</title>
    <desc>Created with Sketch.</desc>
    <defs>
        <linearGradient x1="50%" y1="0%" x2="50%" y2="100%" id="linearGradient-1">
            <stop stop-color="#80C3F3" offset="0%"></stop>
            <stop stop-color="#4990E2" offset="100%"></stop>
        </linearGradient>
        <linearGradient x1="50%" y1="0%" x2="50%" y2="100%" id="linearGradient-2">
            <stop stop-color="#04C33F" stop-opacity="0.5" offset="0%"></stop>
            <stop stop-color="#000000" stop-opacity="0.5" offset="100%"></stop>
        </linearGradient>
        <polygon id="path-3" points="416 20 774 631 58 631"></polygon>
        <polygon id="path-4" points="416.02797 0 832 203.787879 832 611.363636 416.02797 815.151515 0.0559394434 611.363636 0.0559394434 203.787879"></polygon>
        <filter x="-50%" y="-50%" width="200%" height="200%" filterUnits="objectBoundingBox" id="filter-5">
            <feGaussianBlur stdDeviation="8.5" in="SourceAlpha" result="shadowBlurInner1"></feGaussianBlur>
            <feOffset dx="3" dy="16" in="shadowBlurInner1" result="shadowOffsetInner1"></feOffset>
            <feComposite in="shadowOffsetInner1" in2="SourceAlpha" operator="arithmetic" k2="-1" k3="1" result="shadowInnerInner1"></feComposite>
            <feColorMatrix values="0 0 0 0 0   0 0 0 0 0   0 0 0 0 0  0 0 0 0.5 0" type="matrix" in="shadowInnerInner1"></feColorMatrix>
        </filter>
        <mask id="mask-6" maskContentUnits="userSpaceOnUse" maskUnits="objectBoundingBox" x="0" y="0" width="831.944061" height="815.151515" fill="white">
            <use xlink:href="#path-4"></use>
        </mask>
    </defs>
    <g id="Page-2" stroke="none" stroke-width="1" fill="none" fill-rule="evenodd">
        <g id="Artboard-1" transform="translate(-109.000000, -184.000000)">
            <g id="Group-2" transform="translate(95.000000, 184.000000)">
                <path d="M199.390263,887.638672 L225.708622,887.638672 C234.002934,887.638672 240.519796,889.700826 245.259403,893.825195 C249.99901,897.949565 252.368778,904.067668 252.368778,912.179688 C252.368778,920.838585 249.680003,927.583309 244.302372,932.414062 C238.924741,937.244816 231.815437,939.660156 222.974247,939.660156 L208.755497,939.660156 L208.755497,983 L199.390263,983 L199.390263,887.638672 Z M208.755497,895.841797 L208.755497,931.59375 L222.769169,931.59375 C228.739251,931.59375 233.547145,929.941748 237.192997,926.637695 C240.838849,923.333642 242.661747,918.719431 242.661747,912.794922 C242.661747,907.462864 241.157856,903.304377 238.150028,900.319336 C235.142201,897.334295 230.949534,895.841797 225.571903,895.841797 L208.755497,895.841797 Z M320.097118,927.492188 C322.14791,923.75519 324.437926,920.963876 326.967236,919.118164 C329.496545,917.272452 332.265072,916.349609 335.2729,916.349609 C337.505984,916.349609 339.761821,916.850906 342.040478,917.853516 L342.040478,925.919922 C339.397235,924.917313 337.164185,924.416016 335.341259,924.416016 C331.01181,924.416016 327.3888,926.44399 324.472118,930.5 C321.555437,934.55601 320.097118,939.204401 320.097118,944.445312 L320.097118,983 L311.688915,983 L311.688915,917.853516 L319.345165,917.853516 L320.097118,927.492188 Z M422.005146,916.349609 C429.16013,916.349609 435.130122,919.45993 439.915302,925.680664 C444.700482,931.901398 447.093037,940.138621 447.093037,950.392578 C447.093037,956.317087 446.147408,961.911106 444.256123,967.174805 C442.364837,972.438503 439.436806,976.642562 435.471943,979.787109 C431.507079,982.931656 426.904261,984.503906 421.663349,984.503906 C413.870341,984.503906 407.729452,981.291048 403.240498,974.865234 C398.751543,968.439421 396.507099,960.395882 396.507099,950.734375 C396.507099,943.032514 397.919845,936.378934 400.74538,930.773438 C403.570915,925.167941 407.023029,921.36264 411.101826,919.357422 C415.180622,917.352204 418.815026,916.349609 422.005146,916.349609 L422.005146,916.349609 Z M422.552021,924.416016 C416.855378,924.416016 412.571567,926.831356 409.700459,931.662109 C406.82935,936.492863 405.393818,943.078083 405.393818,951.417969 C405.393818,958.572952 406.806564,964.565731 409.632099,969.396484 C412.457634,974.227238 416.422438,976.642578 421.52663,976.642578 C426.357384,976.642578 430.333581,974.398134 433.455341,969.90918 C436.577102,965.420225 438.137959,958.869184 438.137959,950.255859 C438.137959,942.052693 436.611281,935.695335 433.55788,931.183594 C430.50448,926.671852 426.835897,924.416016 422.552021,924.416016 L422.552021,924.416016 Z M510.719814,889.005859 C514.092227,889.005859 515.778408,891.649062 515.778408,896.935547 C515.778408,902.176458 514.069441,904.796875 510.651455,904.796875 C507.370189,904.796875 505.72958,902.199245 505.72958,897.003906 C505.72958,891.671848 507.392975,889.005859 510.719814,889.005859 L510.719814,889.005859 Z M506.481533,917.853516 L514.958096,917.853516 L514.958096,997.833984 C514.958096,1003.48505 513.830177,1007.73469 511.574306,1010.58301 C509.318436,1013.43133 505.934681,1014.85547 501.422939,1014.85547 C498.779697,1014.85547 496.34157,1014.35417 494.108486,1013.35156 L494.108486,1005.14844 C496.022558,1006.28777 497.936602,1006.85742 499.850674,1006.85742 C502.083758,1006.85742 503.747153,1006.10548 504.840908,1004.60156 C505.934664,1003.09765 506.481533,1000.84181 506.481533,997.833984 L506.481533,917.853516 Z M620.215733,976.164062 C613.288615,981.723986 606.521104,984.503906 599.912998,984.503906 C592.165564,984.503906 585.89935,981.393586 581.11417,975.172852 C576.32899,968.952117 573.936436,960.851612 573.936436,950.871094 C573.936436,940.571563 576.408742,932.243196 581.353428,925.885742 C586.298114,919.528289 592.552934,916.349609 600.118076,916.349609 C606.817329,916.349609 612.194879,918.91306 616.250889,924.040039 C620.306899,929.167018 622.334873,935.6497 622.334873,943.488281 L622.334873,947.726562 L582.754795,947.726562 L582.754795,951.076172 C582.754795,959.552777 584.520728,965.955708 588.052647,970.285156 C591.584565,974.614605 595.720266,976.779297 600.459873,976.779297 C607.022406,976.779297 613.607627,973.156286 620.215733,965.910156 L620.215733,976.164062 Z M613.174717,940.412109 C612.992424,934.988905 611.602464,930.921563 609.004795,928.209961 C606.407126,925.498359 603.376557,924.142578 599.912998,924.142578 C596.403866,924.142578 593.134042,925.498359 590.103428,928.209961 C587.072814,930.921563 584.919515,934.988905 583.643467,940.412109 L613.174717,940.412109 Z M720.141338,980.060547 C715.037146,983.022801 710.069748,984.503906 705.238995,984.503906 C697.263694,984.503906 690.792405,981.302441 685.824932,974.899414 C680.857459,968.496387 678.37376,960.578172 678.37376,951.144531 C678.37376,941.437451 680.959997,933.211622 686.132549,926.466797 C691.305101,919.721971 697.99286,916.349609 706.196026,916.349609 C710.75334,916.349609 715.401731,917.716783 720.141338,920.451172 L720.141338,929.953125 C715.538451,926.2617 711.095136,924.416016 706.81126,924.416016 C701.251337,924.416016 696.580159,926.899715 692.797588,931.867188 C689.015017,936.83466 687.12376,943.078087 687.12376,950.597656 C687.12376,957.433628 688.832728,963.449193 692.250713,968.644531 C695.668699,973.83987 700.271518,976.4375 706.059307,976.4375 C710.29761,976.4375 714.991573,974.569029 720.141338,970.832031 L720.141338,980.060547 Z M781.238819,898.439453 L788.963428,898.439453 L788.963428,917.853516 L801.336475,917.853516 L801.336475,925.373047 L788.963428,925.373047 L788.963428,970.900391 C788.963428,972.814463 789.464726,974.261388 790.467335,975.241211 C791.469944,976.221034 792.973835,976.710938 794.979053,976.710938 C796.801979,976.710938 798.921099,975.981778 801.336475,974.523438 L801.336475,983 C798.328648,984.002609 795.389224,984.503906 792.518116,984.503906 C789.008984,984.503906 786.137919,983.478526 783.904835,981.427734 C781.671751,979.376943 780.555225,976.278016 780.555225,972.130859 L780.555225,925.373047 L771.600147,925.373047 L771.600147,917.853516 L780.555225,917.853516 L781.238819,898.439453 Z M380.04039,1048.63867 L389.610703,1048.63867 L372.315781,1144 L363.292343,1144 L353.175156,1080.49414 L350.850937,1062.58398 C349.392596,1074.38743 348.139354,1083.47913 347.091171,1089.85938 L338.272812,1144 L329.386093,1144 L311.886093,1048.63867 L322.139999,1048.63867 L330.958359,1106.53906 C331.231798,1108.27084 331.733095,1112.19007 332.462265,1118.29688 C332.690131,1120.43881 333.168642,1123.94789 333.897812,1128.82422 L336.222031,1111.5293 C336.49547,1108.84048 336.768904,1106.69858 337.042343,1105.10352 L345.929062,1048.63867 L355.020859,1048.63867 L364.796249,1106.53906 L367.940781,1128.82422 L371.085312,1106.53906 L380.04039,1048.63867 Z M461.645683,1077.34961 C468.800667,1077.34961 474.770659,1080.45993 479.55584,1086.68066 C484.34102,1092.9014 486.733574,1101.13862 486.733574,1111.39258 C486.733574,1117.31709 485.787945,1122.91111 483.89666,1128.1748 C482.005374,1133.4385 479.077344,1137.64256 475.11248,1140.78711 C471.147617,1143.93166 466.544798,1145.50391 461.303886,1145.50391 C453.510879,1145.50391 447.36999,1142.29105 442.881035,1135.86523 C438.39208,1129.43942 436.147636,1121.39588 436.147636,1111.73438 C436.147636,1104.03251 437.560383,1097.37893 440.385918,1091.77344 C443.211453,1086.16794 446.663567,1082.36264 450.742363,1080.35742 C454.821159,1078.3522 458.455563,1077.34961 461.645683,1077.34961 L461.645683,1077.34961 Z M462.192558,1085.41602 C456.495915,1085.41602 452.212104,1087.83136 449.340996,1092.66211 C446.469888,1097.49286 445.034355,1104.07808 445.034355,1112.41797 C445.034355,1119.57295 446.447101,1125.56573 449.272636,1130.39648 C452.098171,1135.22724 456.062975,1137.64258 461.167168,1137.64258 C465.997921,1137.64258 469.974118,1135.39813 473.095879,1130.90918 C476.217639,1126.42022 477.778496,1119.86918 477.778496,1111.25586 C477.778496,1103.05269 476.251818,1096.69534 473.198418,1092.18359 C470.145017,1087.67185 466.476434,1085.41602 462.192558,1085.41602 L462.192558,1085.41602 Z M555.350586,1088.49219 C557.401377,1084.75519 559.691394,1081.96388 562.220703,1080.11816 C564.750013,1078.27245 567.51854,1077.34961 570.526367,1077.34961 C572.759451,1077.34961 575.015288,1077.85091 577.293945,1078.85352 L577.293945,1086.91992 C574.650703,1085.91731 572.417652,1085.41602 570.594727,1085.41602 C566.265278,1085.41602 562.642267,1087.44399 559.725586,1091.5 C556.808905,1095.55601 555.350586,1100.2044 555.350586,1105.44531 L555.350586,1144 L546.942383,1144 L546.942383,1078.85352 L554.598633,1078.85352 L555.350586,1088.49219 Z M637.91291,1048.63867 L646.526192,1048.63867 L646.526192,1107.49609 L669.63166,1078.85352 L679.680489,1078.85352 L659.377754,1102.7793 L682.75666,1144 L672.366035,1144 L654.045723,1108.93164 L646.526192,1117.95508 L646.526192,1144 L637.91291,1144 L637.91291,1048.63867 Z" id="Project" fill-opacity="0.766332654" fill="#000000"></path>
                <g id="projectwork.io.logo" transform="translate(104.212500, 0.000000)">
                    <g id="Triangle-1">
                        <use fill="url(#linearGradient-1)" xlink:href="#path-3"></use>
                        <use fill="url(#linearGradient-2)" xlink:href="#path-3"></use>
                    </g>
                    <g id="Polygon-1">
                        <use fill="black" fill-opacity="1" filter="url(#filter-5)" xlink:href="#path-4"></use>
                        <use stroke-opacity="0.586984828" stroke="#AAAAAA" mask="url(#mask-6)" stroke-width="4" xlink:href="#path-4"></use>
                    </g>
                    <path d="M295,272 L295,611 L361.939847,611 L361.939847,489.453782 L432.290642,489.453782 C451.335195,489.453782 467.537034,486.367678 480.896645,480.195378 C494.256257,474.023078 505.128544,465.8726 513.513832,455.743697 C521.89912,445.614795 528.01034,433.982559 531.847675,420.846639 C535.685011,407.710719 537.60365,394.337603 537.60365,380.726891 C537.60365,366.79965 535.685011,353.347404 531.847675,340.369748 C528.01034,327.392092 521.89912,315.838986 513.513832,305.710084 C505.128544,295.581182 494.256257,287.430703 480.896645,281.258403 C467.537034,275.086104 451.335195,272 432.290642,272 L295,272 Z" id="P" fill="#FFFFFF"></path>
                </g>
                <path d="M16.7399343,1196.58127 C16.1930566,1196.44455 15.543649,1196.03439 14.7916921,1195.3508 C14.0397352,1194.6672 13.3561483,1193.91525 12.7409109,1193.09494 C12.1256734,1192.27462 11.6129832,1191.45432 11.2028249,1190.634 C10.7926666,1189.81368 10.5875906,1189.1301 10.5875906,1188.58322 C10.9977489,1184.07148 12.6725368,1180.68772 15.6120046,1178.43185 C18.5514724,1176.17598 21.9352277,1174.63791 25.7633718,1173.81759 C29.5915159,1172.99728 33.55632,1172.58712 37.6579031,1172.58712 L48.1168874,1172.58712 C52.9020676,1172.58712 57.3112032,1172.82638 61.3444265,1173.3049 C65.3776498,1173.78342 68.8981224,1174.87716 71.9059499,1176.58615 C74.9137775,1178.29514 77.3063317,1180.72187 79.0836843,1183.86642 C80.8610369,1187.01097 81.7496999,1191.31757 81.7496999,1196.78634 C81.7496999,1199.52073 81.6471619,1201.94747 81.4420827,1204.06662 C81.2370036,1206.18577 80.8610308,1208.23653 80.3141531,1210.21896 C79.7672753,1212.20139 78.946971,1214.32051 77.8532156,1216.57638 C76.7594601,1218.83225 75.3239276,1221.3957 73.5465749,1224.26681 C79.1520717,1226.04417 83.8004627,1227.71895 87.4918874,1229.29123 C91.1833121,1230.8635 94.0543772,1232.77754 96.1051687,1235.03341 C98.1559602,1237.28928 99.5573134,1240.02363 100.30927,1243.23654 C101.061227,1246.44945 101.4372,1250.58515 101.4372,1255.64377 C101.4372,1261.65942 100.138385,1267.33319 97.5407156,1272.66525 C94.9430463,1277.99731 91.4909324,1282.6457 87.1842702,1286.61056 C82.8776081,1290.57543 77.8532443,1293.68575 72.1110281,1295.94162 C66.3688118,1298.19749 60.2848883,1299.32541 53.8590749,1299.32541 C52.4918806,1299.32541 50.6461959,1299.08615 48.3219656,1298.60763 C45.9977352,1298.12911 43.4684636,1297.51389 40.7340749,1296.76193 C37.9996863,1296.00997 35.1969799,1295.12131 32.3258718,1294.09591 C29.4547637,1293.07052 26.8571334,1291.9426 24.5329031,1290.71212 C22.2086727,1289.48165 20.3288087,1288.25119 18.8932546,1287.02072 C17.4577006,1285.79024 16.7399343,1284.55979 16.7399343,1283.32931 L16.7399343,1196.58127 Z M30.2750906,1243.95431 C30.5485294,1247.23558 30.411812,1250.65351 29.8649343,1254.20822 C29.3180566,1257.76292 28.8395457,1261.18086 28.4293874,1264.46212 C28.0192291,1267.74339 27.8825117,1270.85371 28.0192312,1273.79318 C28.1559506,1276.73265 28.9762549,1279.36446 30.4801687,1281.68869 C31.9840824,1284.01292 34.4449953,1286.0295 37.8629812,1287.73849 C41.280967,1289.44748 45.9977167,1290.64376 52.0133718,1291.32736 C57.0719908,1291.32736 62.0963547,1290.40452 67.086614,1288.5588 C72.0768733,1286.71309 76.5201883,1284.18382 80.4166921,1280.97091 C84.313196,1277.75801 87.4918751,1273.92992 89.9528249,1269.48654 C92.4137747,1265.04316 93.6442312,1260.15551 93.6442312,1254.82345 C93.6442312,1251.26875 93.029003,1248.26097 91.7985281,1245.80002 C90.5680531,1243.33907 88.9274446,1241.32248 86.8766531,1239.75021 C84.8258615,1238.17794 82.399128,1237.05002 79.5963796,1236.36642 C76.7936312,1235.68282 73.8200281,1235.34103 70.6754812,1235.34103 C66.7106176,1235.34103 63.1559656,1235.44357 60.0114187,1235.64865 C56.8668717,1235.85373 53.7565512,1236.26388 50.680364,1236.87912 C47.6041767,1237.49435 44.4596769,1238.38302 41.2467702,1239.54513 C38.0338635,1240.70725 34.3766736,1242.17696 30.2750906,1243.95431 L30.2750906,1243.95431 Z M26.1735281,1222.62619 C26.1735281,1223.71994 26.2418867,1224.84786 26.3786062,1226.00998 C26.5153256,1227.17209 26.754581,1228.19747 27.0963796,1229.08615 C27.4381782,1229.97482 28.0192271,1230.72677 28.8395437,1231.34201 C29.6598603,1231.95725 30.7535993,1232.26486 32.1207937,1232.26486 C36.7692544,1232.26486 41.5543628,1231.3762 46.4762624,1229.59884 C51.398162,1227.82149 55.8756563,1225.36058 59.9088796,1222.21603 C63.9421029,1219.07148 67.2916788,1215.34594 69.9577077,1211.03927 C72.6237367,1206.73261 73.9567312,1201.91332 73.9567312,1196.58127 C73.9567312,1196.03439 73.8200138,1195.24826 73.5465749,1194.22287 C73.2731361,1193.19747 72.6579078,1192.13791 71.7008718,1191.04416 C70.7438358,1189.9504 69.3083032,1188.89084 67.3942312,1187.86545 C65.4801591,1186.84005 62.9167082,1185.98557 59.7038015,1185.30197 C56.4908948,1184.61837 52.4919114,1184.20822 47.7067312,1184.0715 C42.921551,1183.93478 37.1110622,1184.20822 30.2750906,1184.89181 C30.0016517,1185.16525 29.6940376,1186.05391 29.352239,1187.55783 C29.0104404,1189.06174 28.6686469,1190.94161 28.3268484,1193.19748 C27.9850498,1195.45335 27.711615,1197.91426 27.5065359,1200.58029 C27.3014567,1203.24632 27.0963806,1205.91231 26.8913015,1208.57834 C26.6862223,1211.24436 26.5153256,1213.80782 26.3786062,1216.26877 C26.2418867,1218.72972 26.1735281,1220.84883 26.1735281,1222.62619 L26.1735281,1222.62619 Z M190.827558,1161.10275 L198.620527,1291.12228 C210.788556,1291.12228 222.990583,1290.33616 235.226972,1288.76388 C247.463361,1287.19161 260.007181,1285.7219 272.858808,1284.3547 L273.67912,1291.12228 C273.542401,1291.12228 272.277765,1291.29318 269.885175,1291.63498 C267.492585,1291.97678 264.348085,1292.38693 260.451581,1292.86545 C256.555077,1293.34396 252.145942,1293.85665 247.224042,1294.40353 C242.302143,1294.95041 237.380317,1295.49728 232.458417,1296.04416 C227.536518,1296.59103 222.819768,1297.1379 218.308027,1297.68478 C213.796285,1298.23166 209.89984,1298.64181 206.618574,1298.91525 C206.481854,1298.91525 206.140061,1298.94943 205.593183,1299.01779 C205.046305,1299.08615 204.431077,1299.12033 203.74748,1299.12033 L201.696699,1299.12033 L200.056074,1299.12033 C197.048246,1299.12033 194.587333,1297.5139 192.673261,1294.30099 C190.759189,1291.08809 189.186939,1286.71313 187.956464,1281.17599 C186.725989,1275.63886 185.837326,1269.2815 185.290449,1262.10373 C184.743571,1254.92596 184.333419,1247.44068 184.05998,1239.64767 C183.786541,1231.85466 183.684003,1223.99341 183.752363,1216.06369 C183.820722,1208.13396 183.854902,1200.64868 183.854902,1193.60763 C183.854902,1186.56658 183.820722,1180.17504 183.752363,1174.43283 C183.684003,1168.69061 183.444747,1164.2473 183.034589,1161.10275 L190.827558,1161.10275 Z M353.225728,1230.82931 C353.225728,1226.31757 353.533342,1221.53246 354.14858,1216.47384 C354.763817,1211.41522 355.789198,1206.45922 357.224752,1201.60568 C358.660306,1196.75214 360.505991,1192.10375 362.761861,1187.66037 C365.017732,1183.21699 367.752079,1179.32054 370.964986,1175.97091 C374.177893,1172.62129 377.937621,1169.9553 382.244283,1167.97287 C386.550945,1165.99044 391.438592,1164.99923 396.907369,1164.99923 C401.692549,1164.99923 405.930788,1166.33223 409.622213,1168.99826 C413.313637,1171.66429 416.526496,1175.15058 419.260885,1179.45724 C421.995273,1183.7639 424.25111,1188.65155 426.028463,1194.12033 C427.805815,1199.58911 429.275527,1205.09198 430.437642,1210.62912 C431.599758,1216.16625 432.385883,1221.49823 432.796041,1226.62521 C433.206199,1231.75219 433.411275,1236.16133 433.411275,1239.85275 C432.864398,1247.9192 431.7023,1255.33611 429.924947,1262.10373 C428.147594,1268.87134 425.720861,1274.81854 422.644674,1279.94552 C419.568486,1285.0725 415.774579,1289.27656 411.262838,1292.55783 C406.751096,1295.83909 401.282401,1298.02657 394.856588,1299.12033 C388.704213,1299.12033 383.440594,1298.02659 379.065572,1295.83908 C374.69055,1293.65157 370.930822,1290.7805 367.786275,1287.2258 C364.641728,1283.67109 362.112457,1279.56957 360.198385,1274.92111 C358.284313,1270.27265 356.814601,1265.41918 355.789205,1260.36056 C354.763809,1255.30194 354.080222,1250.20922 353.738424,1245.08224 C353.396625,1239.95526 353.225728,1235.20433 353.225728,1230.82931 L353.225728,1230.82931 Z M361.018697,1230.82931 C361.018697,1234.11058 361.087056,1237.80195 361.223775,1241.90353 C361.360495,1246.00511 361.736467,1250.14081 362.351705,1254.31076 C362.966942,1258.4807 363.889785,1262.58222 365.12026,1266.61545 C366.350735,1270.64867 368.025522,1274.20332 370.144674,1277.27951 C372.263825,1280.35569 374.929814,1282.85079 378.142721,1284.76486 C381.355627,1286.67893 385.217893,1287.63595 389.729635,1287.63595 C396.292167,1288.04611 401.692504,1287.22581 405.930806,1285.17502 C410.169109,1283.12422 413.587044,1279.97972 416.184713,1275.74142 C418.782382,1271.50312 420.764784,1266.37622 422.131978,1260.36056 C423.499173,1254.34491 424.592912,1247.50904 425.413228,1239.85275 C425.413228,1236.84492 425.276511,1233.08519 425.003072,1228.57345 C424.729633,1224.06171 424.216943,1219.34496 423.464986,1214.42306 C422.713029,1209.50116 421.687649,1204.54516 420.388814,1199.5549 C419.08998,1194.56464 417.381012,1190.05297 415.261861,1186.01974 C413.14271,1181.98652 410.613438,1178.73948 407.673971,1176.27853 C404.734503,1173.81758 401.21403,1172.58712 397.112447,1172.58712 C392.874145,1172.58712 389.046058,1173.57833 385.628072,1175.56076 C382.210086,1177.54319 379.168125,1180.14082 376.502096,1183.35373 C373.836067,1186.56663 371.511871,1190.22382 369.529439,1194.32541 C367.547008,1198.42699 365.940578,1202.63105 364.710103,1206.93771 C363.479628,1211.24437 362.556786,1215.48261 361.941549,1219.65255 C361.326311,1223.8225 361.018697,1227.54805 361.018697,1230.82931 L361.018697,1230.82931 Z M609.54968,1285.38009 C604.217622,1288.11448 599.500872,1290.30196 595.399289,1291.94259 C591.297706,1293.58323 587.332902,1294.84786 583.504758,1295.73654 C579.676614,1296.62522 575.814348,1297.20626 571.917844,1297.4797 C568.02134,1297.75314 563.543846,1297.88986 558.485227,1297.88986 C551.785975,1297.88986 545.77041,1297.10373 540.438352,1295.53146 C535.106294,1293.95919 530.560441,1291.56663 526.800657,1288.35373 C523.040872,1285.14082 520.135628,1281.0393 518.084836,1276.04904 C516.034045,1271.05878 515.008664,1265.00904 515.008664,1257.89962 C515.008664,1251.47381 515.658072,1244.7063 516.956907,1237.59689 C518.255741,1230.48748 520.169785,1223.41236 522.699094,1216.3713 C525.228404,1209.33025 528.372903,1202.56274 532.132688,1196.06857 C535.892472,1189.5744 540.301608,1183.86645 545.360227,1178.94455 C550.418846,1174.02265 556.092617,1170.09202 562.381711,1167.15255 C568.670805,1164.21309 575.643392,1162.74337 583.29968,1162.74337 C586.170788,1162.74337 589.588723,1163.05099 593.553586,1163.66623 C597.51845,1164.28146 601.312357,1165.30684 604.935422,1166.7424 C608.558487,1168.17795 611.600449,1170.22871 614.061399,1172.89474 C616.522349,1175.56077 617.752805,1178.94453 617.752805,1183.04611 C617.752805,1184.55002 617.035039,1185.26779 615.599485,1185.19943 C614.163931,1185.13107 612.386605,1184.61838 610.267454,1183.66134 C608.148302,1182.70431 605.755748,1181.47385 603.089719,1179.96994 C600.42369,1178.46602 597.860239,1177.03049 595.399289,1175.6633 C592.93834,1174.2961 590.682503,1173.134 588.631711,1172.17697 C586.58092,1171.21993 585.00867,1170.87814 583.914914,1171.15158 C577.352382,1171.15158 571.405176,1172.41621 566.073118,1174.94552 C560.74106,1177.47483 555.921772,1180.85859 551.61511,1185.09689 C547.308448,1189.33519 543.54872,1194.22284 540.335813,1199.75998 C537.122906,1205.29711 534.456917,1211.07342 532.337766,1217.08908 C530.218615,1223.10473 528.646365,1229.08612 527.620969,1235.03341 C526.595573,1240.98071 526.082883,1246.6203 526.082883,1251.95236 C525.125847,1258.37817 525.50182,1263.94941 527.210813,1268.66623 C528.919806,1273.38305 531.483257,1277.27949 534.901243,1280.35568 C538.319228,1283.43187 542.42075,1285.72188 547.20593,1287.2258 C551.99111,1288.72971 556.947115,1289.58419 562.074094,1289.78927 C567.201073,1289.99435 572.293795,1289.51584 577.352414,1288.35373 C582.411034,1287.19161 587.025245,1285.44846 591.195188,1283.12423 C595.365131,1280.8 598.783065,1277.92894 601.449094,1274.51095 C604.115123,1271.09297 605.653194,1267.26488 606.063352,1263.02658 C606.063352,1258.65156 605.208868,1254.96019 603.499875,1251.95236 C601.790882,1248.94453 599.535046,1246.41526 596.732297,1244.36447 C593.929549,1242.31368 590.71669,1240.67307 587.093625,1239.44259 C583.47056,1238.21212 579.779191,1237.2551 576.019407,1236.5715 C572.259622,1235.8879 568.499894,1235.40939 564.74011,1235.13595 C560.980325,1234.86251 557.528211,1234.52072 554.383664,1234.11056 L554.383664,1230.41916 C554.383664,1230.14572 556.19517,1229.66721 559.818235,1228.98361 C563.4413,1228.30001 567.747897,1227.54807 572.738157,1226.72775 C577.728416,1225.90743 582.889497,1225.08713 588.221555,1224.26681 C593.553613,1223.4465 598.065287,1222.83127 601.756711,1222.42111 C601.756711,1222.42111 602.098505,1222.38693 602.782102,1222.31857 C603.465699,1222.25021 604.217645,1222.21603 605.037961,1222.21603 L607.498899,1222.21603 L609.54968,1222.21603 L611.087766,1222.21603 L613.446164,1222.21603 C614.266481,1222.21603 615.052606,1222.25021 615.804563,1222.31857 C616.55652,1222.38693 617.06921,1222.42111 617.342649,1222.42111 C617.479368,1224.33518 617.650265,1227.37714 617.855344,1231.54709 C618.060423,1235.71703 618.299679,1240.36542 618.573118,1245.4924 C618.846556,1250.61938 619.119991,1256.05389 619.39343,1261.79611 C619.666869,1267.53833 619.940304,1272.97284 620.213743,1278.09982 C620.487181,1283.2268 620.726437,1287.84101 620.931516,1291.94259 C621.136595,1296.04418 621.307492,1299.12032 621.444211,1301.17111 L621.444211,1304.24728 C621.444211,1305.75119 621.478391,1307.35762 621.54675,1309.06662 C621.61511,1310.77561 621.649289,1312.34786 621.649289,1313.78341 L621.649289,1316.96212 L617.342649,1316.96212 L609.54968,1285.38009 Z M609.54968,1242.10861 L609.54968,1229.59884 C607.498889,1229.59884 605.379769,1230.11153 603.192258,1231.13693 C601.004747,1232.16233 599.159063,1233.15353 597.655149,1234.11056 L609.54968,1242.10861 Z" id="BLOG" fill-opacity="0.766332654" fill="#000000" transform="translate(318.476838, 1239.032437) rotate(13.000000) translate(-318.476838, -1239.032437) "></path>
            </g>
        </g>
    </g>
</svg>